<mxfile host="Electron" modified="2024-04-27T15:10:52.607Z" agent="Mozilla/5.0 (X11; Linux x86_64) AppleWebKit/537.36 (KHTML, like Gecko) draw.io/24.2.5 Chrome/120.0.6099.109 Electron/28.1.0 Safari/537.36" etag="c1QdNW-wgVauInF3ISLC" version="24.2.5" type="device">
  <diagram name="Page-1" id="GFMuZ3xcZMr1UpQltZ9o">
    <mxGraphModel dx="1434" dy="835" grid="1" gridSize="10" guides="1" tooltips="1" connect="1" arrows="1" fold="1" page="1" pageScale="1" pageWidth="850" pageHeight="1100" math="0" shadow="0">
      <root>
        <mxCell id="0" />
        <mxCell id="1" parent="0" />
        <mxCell id="pw8HVyMEDtc53XN5oC7Q-2" value="0" style="rounded=0;whiteSpace=wrap;html=1;shadow=0;strokeColor=#6c8ebf;strokeWidth=1;fontFamily=Ubuntu;fontSize=16;fontStyle=0;fillColor=#dae8fc;" parent="1" vertex="1">
          <mxGeometry x="240" y="520" width="40" height="40" as="geometry" />
        </mxCell>
        <mxCell id="pw8HVyMEDtc53XN5oC7Q-6" value="1" style="rounded=0;whiteSpace=wrap;html=1;shadow=0;strokeColor=#6c8ebf;strokeWidth=1;fontFamily=Ubuntu;fontSize=16;fontStyle=0;fillColor=#dae8fc;" parent="1" vertex="1">
          <mxGeometry x="280" y="520" width="40" height="40" as="geometry" />
        </mxCell>
        <mxCell id="pw8HVyMEDtc53XN5oC7Q-7" value="2" style="rounded=0;whiteSpace=wrap;html=1;shadow=0;strokeColor=#82b366;strokeWidth=1;fontFamily=Ubuntu;fontSize=16;fontStyle=0;fillColor=#d5e8d4;" parent="1" vertex="1">
          <mxGeometry x="320" y="520" width="40" height="40" as="geometry" />
        </mxCell>
        <mxCell id="pw8HVyMEDtc53XN5oC7Q-8" value="3" style="rounded=0;whiteSpace=wrap;html=1;shadow=0;strokeWidth=1;fontFamily=Ubuntu;fontSize=16;fontStyle=0;fillColor=#dae8fc;strokeColor=#6c8ebf;" parent="1" vertex="1">
          <mxGeometry x="360" y="520" width="40" height="40" as="geometry" />
        </mxCell>
        <mxCell id="pw8HVyMEDtc53XN5oC7Q-9" value="4" style="rounded=0;whiteSpace=wrap;html=1;shadow=0;strokeColor=#6c8ebf;strokeWidth=1;fontFamily=Ubuntu;fontSize=16;fontStyle=0;fillColor=#dae8fc;" parent="1" vertex="1">
          <mxGeometry x="400" y="520" width="40" height="40" as="geometry" />
        </mxCell>
        <mxCell id="pw8HVyMEDtc53XN5oC7Q-10" value="5" style="rounded=0;whiteSpace=wrap;html=1;shadow=0;strokeColor=#d79b00;strokeWidth=1;fontFamily=Ubuntu;fontSize=16;fontStyle=0;fillColor=#ffe6cc;" parent="1" vertex="1">
          <mxGeometry x="440" y="520" width="40" height="40" as="geometry" />
        </mxCell>
        <mxCell id="pw8HVyMEDtc53XN5oC7Q-11" value="6" style="rounded=0;whiteSpace=wrap;html=1;shadow=0;strokeColor=#6c8ebf;strokeWidth=1;fontFamily=Ubuntu;fontSize=16;fontStyle=0;fillColor=#dae8fc;" parent="1" vertex="1">
          <mxGeometry x="480" y="520" width="40" height="40" as="geometry" />
        </mxCell>
        <mxCell id="pw8HVyMEDtc53XN5oC7Q-12" value="7" style="rounded=0;whiteSpace=wrap;html=1;shadow=0;strokeColor=#6c8ebf;strokeWidth=1;fontFamily=Ubuntu;fontSize=16;fontStyle=0;fillColor=#dae8fc;" parent="1" vertex="1">
          <mxGeometry x="520" y="520" width="40" height="40" as="geometry" />
        </mxCell>
        <mxCell id="pw8HVyMEDtc53XN5oC7Q-13" value="..." style="rounded=0;whiteSpace=wrap;html=1;shadow=0;strokeColor=#6c8ebf;strokeWidth=1;fontFamily=Ubuntu;fontSize=16;fontStyle=0;fillColor=#dae8fc;" parent="1" vertex="1">
          <mxGeometry x="560" y="520" width="40" height="40" as="geometry" />
        </mxCell>
        <mxCell id="pw8HVyMEDtc53XN5oC7Q-14" value="n" style="rounded=0;whiteSpace=wrap;html=1;shadow=0;strokeColor=#6c8ebf;strokeWidth=1;fontFamily=Ubuntu;fontSize=16;fontStyle=0;fillColor=#dae8fc;" parent="1" vertex="1">
          <mxGeometry x="600" y="520" width="40" height="40" as="geometry" />
        </mxCell>
        <mxCell id="pw8HVyMEDtc53XN5oC7Q-26" value="" style="group" parent="1" vertex="1" connectable="0">
          <mxGeometry x="430" y="451" width="60" height="60" as="geometry" />
        </mxCell>
        <mxCell id="pw8HVyMEDtc53XN5oC7Q-16" value="right" style="text;html=1;align=center;verticalAlign=middle;whiteSpace=wrap;rounded=0;fontFamily=Ubuntu;fontSize=16;fontStyle=0;" parent="pw8HVyMEDtc53XN5oC7Q-26" vertex="1">
          <mxGeometry width="60" height="30" as="geometry" />
        </mxCell>
        <mxCell id="pw8HVyMEDtc53XN5oC7Q-18" value="" style="endArrow=block;html=1;rounded=1;shadow=0;strokeColor=#000000;strokeWidth=4;fontFamily=Ubuntu;fontSize=14;fontStyle=0;fillColor=#dae8fc;endFill=1;" parent="pw8HVyMEDtc53XN5oC7Q-26" edge="1">
          <mxGeometry width="50" height="50" relative="1" as="geometry">
            <mxPoint x="29.5" y="30" as="sourcePoint" />
            <mxPoint x="30" y="60" as="targetPoint" />
          </mxGeometry>
        </mxCell>
        <mxCell id="-XjuOI_jK4M49bs657_k-4" value="" style="endArrow=classic;html=1;rounded=1;shadow=0;strokeColor=#6c8ebf;strokeWidth=2;fontFamily=Ubuntu;fontSize=14;fontStyle=0;fillColor=#dae8fc;" parent="pw8HVyMEDtc53XN5oC7Q-26" edge="1">
          <mxGeometry width="50" height="50" relative="1" as="geometry">
            <mxPoint x="130" y="39" as="sourcePoint" />
            <mxPoint x="50" y="39" as="targetPoint" />
          </mxGeometry>
        </mxCell>
        <mxCell id="pw8HVyMEDtc53XN5oC7Q-32" value="" style="endArrow=classic;html=1;rounded=1;shadow=0;strokeColor=#6c8ebf;strokeWidth=2;fontFamily=Ubuntu;fontSize=14;fontStyle=0;fillColor=#dae8fc;" parent="1" edge="1">
          <mxGeometry width="50" height="50" relative="1" as="geometry">
            <mxPoint x="280" y="490" as="sourcePoint" />
            <mxPoint x="320" y="490" as="targetPoint" />
          </mxGeometry>
        </mxCell>
        <mxCell id="-XjuOI_jK4M49bs657_k-1" value="" style="group" parent="1" vertex="1" connectable="0">
          <mxGeometry x="550" y="450" width="60" height="60" as="geometry" />
        </mxCell>
        <mxCell id="pw8HVyMEDtc53XN5oC7Q-19" value="right" style="text;html=1;align=center;verticalAlign=middle;whiteSpace=wrap;rounded=0;fontFamily=Ubuntu;fontSize=16;fontStyle=0;opacity=40;fontColor=#808080;" parent="-XjuOI_jK4M49bs657_k-1" vertex="1">
          <mxGeometry width="60" height="30" as="geometry" />
        </mxCell>
        <mxCell id="pw8HVyMEDtc53XN5oC7Q-20" value="" style="endArrow=block;html=1;rounded=1;shadow=0;strokeColor=#858585;strokeWidth=4;fontFamily=Ubuntu;fontSize=14;fontStyle=0;fillColor=#dae8fc;endFill=1;" parent="-XjuOI_jK4M49bs657_k-1" edge="1">
          <mxGeometry width="50" height="50" relative="1" as="geometry">
            <mxPoint x="29.5" y="30" as="sourcePoint" />
            <mxPoint x="30" y="60" as="targetPoint" />
          </mxGeometry>
        </mxCell>
        <mxCell id="-XjuOI_jK4M49bs657_k-2" value="靠拢型双指针" style="text;html=1;align=center;verticalAlign=middle;whiteSpace=wrap;rounded=0;fontFamily=Ubuntu;fontSize=16;fontStyle=0;" parent="1" vertex="1">
          <mxGeometry x="370" y="580" width="130" height="30" as="geometry" />
        </mxCell>
        <mxCell id="-XjuOI_jK4M49bs657_k-3" value="" style="group" parent="1" vertex="1" connectable="0">
          <mxGeometry x="310" y="451" width="60" height="60" as="geometry" />
        </mxCell>
        <mxCell id="pw8HVyMEDtc53XN5oC7Q-15" value="left" style="text;html=1;align=center;verticalAlign=middle;whiteSpace=wrap;rounded=0;fontFamily=Ubuntu;fontSize=16;fontStyle=0;" parent="-XjuOI_jK4M49bs657_k-3" vertex="1">
          <mxGeometry width="60" height="30" as="geometry" />
        </mxCell>
        <mxCell id="pw8HVyMEDtc53XN5oC7Q-21" value="" style="endArrow=block;html=1;rounded=1;shadow=0;strokeColor=#000000;strokeWidth=4;fontFamily=Ubuntu;fontSize=14;fontStyle=0;fillColor=#dae8fc;endFill=1;" parent="-XjuOI_jK4M49bs657_k-3" edge="1">
          <mxGeometry width="50" height="50" relative="1" as="geometry">
            <mxPoint x="29.5" y="30" as="sourcePoint" />
            <mxPoint x="30" y="60" as="targetPoint" />
          </mxGeometry>
        </mxCell>
        <mxCell id="-XjuOI_jK4M49bs657_k-5" value="" style="group" parent="1" vertex="1" connectable="0">
          <mxGeometry x="230" y="451" width="60" height="60" as="geometry" />
        </mxCell>
        <mxCell id="pw8HVyMEDtc53XN5oC7Q-22" value="left" style="text;html=1;align=center;verticalAlign=middle;whiteSpace=wrap;rounded=0;fontFamily=Ubuntu;fontSize=16;fontStyle=0;fontColor=#999999;" parent="-XjuOI_jK4M49bs657_k-5" vertex="1">
          <mxGeometry width="60" height="30" as="geometry" />
        </mxCell>
        <mxCell id="pw8HVyMEDtc53XN5oC7Q-23" value="" style="endArrow=block;html=1;rounded=1;shadow=0;strokeColor=#808080;strokeWidth=4;fontFamily=Ubuntu;fontSize=14;fontStyle=0;fillColor=#dae8fc;endFill=1;" parent="-XjuOI_jK4M49bs657_k-5" edge="1">
          <mxGeometry width="50" height="50" relative="1" as="geometry">
            <mxPoint x="29.5" y="30" as="sourcePoint" />
            <mxPoint x="30" y="60" as="targetPoint" />
          </mxGeometry>
        </mxCell>
      </root>
    </mxGraphModel>
  </diagram>
</mxfile>
